<mxfile host="app.diagrams.net" modified="2022-03-29T11:42:49.755Z" agent="5.0 (Windows NT 10.0; Win64; x64) AppleWebKit/537.36 (KHTML, like Gecko) Chrome/99.0.4844.84 Safari/537.36" etag="WW5RdY9M1YQJt644_7a0" version="17.2.4" type="github">
  <diagram name="Page-1" id="5d7acffa-a066-3a61-03fe-96351882024d">
    <mxGraphModel dx="1248" dy="801" grid="1" gridSize="10" guides="1" tooltips="1" connect="1" arrows="1" fold="1" page="1" pageScale="1" pageWidth="1169" pageHeight="827" math="0" shadow="1">
      <root>
        <mxCell id="0" />
        <mxCell id="1" parent="0" />
        <mxCell id="Rhfo9n1dwfOJ7BGIrTa6-90" value="&lt;b&gt;&lt;font style=&quot;font-size: 14px&quot;&gt;Заявка на издание&lt;/font&gt;&lt;/b&gt;" style="html=1;rounded=0;shadow=0;comic=0;labelBackgroundColor=none;strokeWidth=2;fontFamily=Verdana;fontSize=12;align=center;shape=mxgraph.ios7ui.horLines;fillColor=#d5e8d4;strokeColor=#82b366;verticalAlign=top;gradientDirection=east;sketch=1;" vertex="1" parent="1">
          <mxGeometry x="260" y="110" width="460" height="290" as="geometry" />
        </mxCell>
        <mxCell id="21ea969265ad0168-6" value="На производство" style="swimlane;html=1;fontStyle=0;childLayout=stackLayout;horizontal=1;startSize=26;fillColor=#21C0A5;horizontalStack=0;resizeParent=1;resizeLast=0;collapsible=1;marginBottom=0;swimlaneFillColor=#ffffff;align=center;rounded=1;shadow=0;comic=0;labelBackgroundColor=none;strokeWidth=1;fontFamily=Verdana;fontSize=12;strokeColor=#006658;fontColor=#5C5C5C;" parent="1" vertex="1">
          <mxGeometry x="40" y="440" width="160" height="190" as="geometry" />
        </mxCell>
        <mxCell id="21ea969265ad0168-7" value="заказ" style="text;html=1;strokeColor=none;fillColor=none;spacingLeft=4;spacingRight=4;whiteSpace=wrap;overflow=hidden;rotatable=0;points=[[0,0.5],[1,0.5]];portConstraint=eastwest;fontColor=#5C5C5C;rounded=1;" parent="21ea969265ad0168-6" vertex="1">
          <mxGeometry y="26" width="160" height="26" as="geometry" />
        </mxCell>
        <mxCell id="21ea969265ad0168-8" value="договор" style="text;html=1;strokeColor=none;fillColor=none;spacingLeft=4;spacingRight=4;whiteSpace=wrap;overflow=hidden;rotatable=0;points=[[0,0.5],[1,0.5]];portConstraint=eastwest;fontColor=#5C5C5C;rounded=1;" parent="21ea969265ad0168-6" vertex="1">
          <mxGeometry y="52" width="160" height="26" as="geometry" />
        </mxCell>
        <mxCell id="21ea969265ad0168-9" value="срок" style="text;html=1;strokeColor=none;fillColor=none;spacingLeft=4;spacingRight=4;whiteSpace=wrap;overflow=hidden;rotatable=0;points=[[0,0.5],[1,0.5]];portConstraint=eastwest;fontColor=#5C5C5C;rounded=1;" parent="21ea969265ad0168-6" vertex="1">
          <mxGeometry y="78" width="160" height="26" as="geometry" />
        </mxCell>
        <mxCell id="Rhfo9n1dwfOJ7BGIrTa6-1" value="количество" style="text;html=1;strokeColor=none;fillColor=none;spacingLeft=4;spacingRight=4;whiteSpace=wrap;overflow=hidden;rotatable=0;points=[[0,0.5],[1,0.5]];portConstraint=eastwest;fontColor=#5C5C5C;rounded=1;" vertex="1" parent="21ea969265ad0168-6">
          <mxGeometry y="104" width="160" height="26" as="geometry" />
        </mxCell>
        <mxCell id="Rhfo9n1dwfOJ7BGIrTa6-2" value="стоимость" style="text;html=1;strokeColor=none;fillColor=none;spacingLeft=4;spacingRight=4;whiteSpace=wrap;overflow=hidden;rotatable=0;points=[[0,0.5],[1,0.5]];portConstraint=eastwest;fontColor=#5C5C5C;rounded=1;" vertex="1" parent="21ea969265ad0168-6">
          <mxGeometry y="130" width="160" height="26" as="geometry" />
        </mxCell>
        <mxCell id="Rhfo9n1dwfOJ7BGIrTa6-10" value="id.номенклатура" style="text;html=1;strokeColor=none;fillColor=none;spacingLeft=4;spacingRight=4;whiteSpace=wrap;overflow=hidden;rotatable=0;points=[[0,0.5],[1,0.5]];portConstraint=eastwest;fontColor=#5C5C5C;rounded=1;" vertex="1" parent="21ea969265ad0168-6">
          <mxGeometry y="156" width="160" height="26" as="geometry" />
        </mxCell>
        <mxCell id="Rhfo9n1dwfOJ7BGIrTa6-24" value="договор на изделие" style="swimlane;html=1;fontStyle=0;childLayout=stackLayout;horizontal=1;startSize=26;fillColor=#21C0A5;horizontalStack=0;resizeParent=1;resizeLast=0;collapsible=1;marginBottom=0;swimlaneFillColor=#ffffff;align=center;rounded=1;shadow=0;comic=0;labelBackgroundColor=none;strokeWidth=1;fontFamily=Verdana;fontSize=12;strokeColor=#006658;fontColor=#5C5C5C;" vertex="1" parent="1">
          <mxGeometry x="290" y="190" width="160" height="130" as="geometry" />
        </mxCell>
        <mxCell id="Rhfo9n1dwfOJ7BGIrTa6-26" value="договор" style="text;html=1;strokeColor=none;fillColor=none;spacingLeft=4;spacingRight=4;whiteSpace=wrap;overflow=hidden;rotatable=0;points=[[0,0.5],[1,0.5]];portConstraint=eastwest;fontColor=#5C5C5C;rounded=1;" vertex="1" parent="Rhfo9n1dwfOJ7BGIrTa6-24">
          <mxGeometry y="26" width="160" height="26" as="geometry" />
        </mxCell>
        <mxCell id="Rhfo9n1dwfOJ7BGIrTa6-27" value="контрагент" style="text;html=1;strokeColor=none;fillColor=none;spacingLeft=4;spacingRight=4;whiteSpace=wrap;overflow=hidden;rotatable=0;points=[[0,0.5],[1,0.5]];portConstraint=eastwest;fontColor=#5C5C5C;rounded=1;" vertex="1" parent="Rhfo9n1dwfOJ7BGIrTa6-24">
          <mxGeometry y="52" width="160" height="26" as="geometry" />
        </mxCell>
        <mxCell id="Rhfo9n1dwfOJ7BGIrTa6-28" value="ИГК" style="text;html=1;strokeColor=none;fillColor=none;spacingLeft=4;spacingRight=4;whiteSpace=wrap;overflow=hidden;rotatable=0;points=[[0,0.5],[1,0.5]];portConstraint=eastwest;fontColor=#5C5C5C;rounded=1;" vertex="1" parent="Rhfo9n1dwfOJ7BGIrTa6-24">
          <mxGeometry y="78" width="160" height="26" as="geometry" />
        </mxCell>
        <mxCell id="Rhfo9n1dwfOJ7BGIrTa6-29" value="количество&lt;br&gt;" style="text;html=1;strokeColor=none;fillColor=none;spacingLeft=4;spacingRight=4;whiteSpace=wrap;overflow=hidden;rotatable=0;points=[[0,0.5],[1,0.5]];portConstraint=eastwest;fontColor=#5C5C5C;rounded=1;" vertex="1" parent="Rhfo9n1dwfOJ7BGIrTa6-24">
          <mxGeometry y="104" width="160" height="26" as="geometry" />
        </mxCell>
        <mxCell id="Rhfo9n1dwfOJ7BGIrTa6-30" style="edgeStyle=orthogonalEdgeStyle;rounded=1;orthogonalLoop=1;jettySize=auto;html=1;exitX=1;exitY=0.5;exitDx=0;exitDy=0;entryX=0;entryY=0.5;entryDx=0;entryDy=0;endArrow=oval;endFill=1;strokeColor=#006658;fontColor=#5C5C5C;startArrow=oval;startFill=1;" edge="1" parent="1" source="21ea969265ad0168-8" target="Rhfo9n1dwfOJ7BGIrTa6-26">
          <mxGeometry relative="1" as="geometry" />
        </mxCell>
        <mxCell id="Rhfo9n1dwfOJ7BGIrTa6-37" value="ИГК" style="swimlane;html=1;fontStyle=0;childLayout=stackLayout;horizontal=1;startSize=26;fillColor=#f8cecc;horizontalStack=0;resizeParent=1;resizeLast=0;collapsible=1;marginBottom=0;swimlaneFillColor=#ffffff;align=center;rounded=1;shadow=0;comic=0;labelBackgroundColor=none;strokeWidth=1;fontFamily=Verdana;fontSize=12;strokeColor=#b85450;" vertex="1" parent="1">
          <mxGeometry x="530" y="160" width="160" height="210" as="geometry" />
        </mxCell>
        <mxCell id="Rhfo9n1dwfOJ7BGIrTa6-38" value="id" style="text;html=1;strokeColor=none;fillColor=none;spacingLeft=4;spacingRight=4;whiteSpace=wrap;overflow=hidden;rotatable=0;points=[[0,0.5],[1,0.5]];portConstraint=eastwest;fontColor=#5C5C5C;rounded=1;" vertex="1" parent="Rhfo9n1dwfOJ7BGIrTa6-37">
          <mxGeometry y="26" width="160" height="26" as="geometry" />
        </mxCell>
        <mxCell id="Rhfo9n1dwfOJ7BGIrTa6-43" value="..." style="text;html=1;strokeColor=none;fillColor=none;spacingLeft=4;spacingRight=4;whiteSpace=wrap;overflow=hidden;rotatable=0;points=[[0,0.5],[1,0.5]];portConstraint=eastwest;fontColor=#5C5C5C;rounded=1;" vertex="1" parent="Rhfo9n1dwfOJ7BGIrTa6-37">
          <mxGeometry y="52" width="160" height="26" as="geometry" />
        </mxCell>
        <mxCell id="Rhfo9n1dwfOJ7BGIrTa6-44" value="...&lt;br&gt;" style="text;html=1;strokeColor=none;fillColor=none;spacingLeft=4;spacingRight=4;whiteSpace=wrap;overflow=hidden;rotatable=0;points=[[0,0.5],[1,0.5]];portConstraint=eastwest;fontColor=#5C5C5C;rounded=1;" vertex="1" parent="Rhfo9n1dwfOJ7BGIrTa6-37">
          <mxGeometry y="78" width="160" height="26" as="geometry" />
        </mxCell>
        <mxCell id="Rhfo9n1dwfOJ7BGIrTa6-45" style="edgeStyle=orthogonalEdgeStyle;rounded=1;orthogonalLoop=1;jettySize=auto;html=1;exitX=1;exitY=0.5;exitDx=0;exitDy=0;entryX=0;entryY=0.5;entryDx=0;entryDy=0;fontColor=#5C5C5C;strokeColor=#b85450;fillColor=#f8cecc;startArrow=oval;startFill=1;endArrow=oval;endFill=1;" edge="1" parent="1" source="Rhfo9n1dwfOJ7BGIrTa6-28" target="Rhfo9n1dwfOJ7BGIrTa6-38">
          <mxGeometry relative="1" as="geometry" />
        </mxCell>
        <mxCell id="Rhfo9n1dwfOJ7BGIrTa6-46" value="Номенклатура" style="swimlane;html=1;fontStyle=0;childLayout=stackLayout;horizontal=1;startSize=26;fillColor=#21C0A5;horizontalStack=0;resizeParent=1;resizeLast=0;collapsible=1;marginBottom=0;swimlaneFillColor=#ffffff;align=center;rounded=1;shadow=0;comic=0;labelBackgroundColor=none;strokeWidth=1;fontFamily=Verdana;fontSize=12;strokeColor=#006658;fontColor=#5C5C5C;" vertex="1" parent="1">
          <mxGeometry x="290" y="440" width="160" height="160" as="geometry" />
        </mxCell>
        <mxCell id="Rhfo9n1dwfOJ7BGIrTa6-47" value="id.номенклатура" style="text;html=1;strokeColor=none;fillColor=none;spacingLeft=4;spacingRight=4;whiteSpace=wrap;overflow=hidden;rotatable=0;points=[[0,0.5],[1,0.5]];portConstraint=eastwest;fontColor=#5C5C5C;rounded=1;" vertex="1" parent="Rhfo9n1dwfOJ7BGIrTa6-46">
          <mxGeometry y="26" width="160" height="26" as="geometry" />
        </mxCell>
        <mxCell id="Rhfo9n1dwfOJ7BGIrTa6-48" value="еденицы измерения" style="text;html=1;strokeColor=none;fillColor=none;spacingLeft=4;spacingRight=4;whiteSpace=wrap;overflow=hidden;rotatable=0;points=[[0,0.5],[1,0.5]];portConstraint=eastwest;fontColor=#5C5C5C;rounded=1;" vertex="1" parent="Rhfo9n1dwfOJ7BGIrTa6-46">
          <mxGeometry y="52" width="160" height="26" as="geometry" />
        </mxCell>
        <mxCell id="Rhfo9n1dwfOJ7BGIrTa6-49" value="поставщик" style="text;html=1;strokeColor=none;fillColor=none;spacingLeft=4;spacingRight=4;whiteSpace=wrap;overflow=hidden;rotatable=0;points=[[0,0.5],[1,0.5]];portConstraint=eastwest;fontColor=#5C5C5C;rounded=1;" vertex="1" parent="Rhfo9n1dwfOJ7BGIrTa6-46">
          <mxGeometry y="78" width="160" height="26" as="geometry" />
        </mxCell>
        <mxCell id="Rhfo9n1dwfOJ7BGIrTa6-50" value="срок поставки" style="text;html=1;strokeColor=none;fillColor=none;spacingLeft=4;spacingRight=4;whiteSpace=wrap;overflow=hidden;rotatable=0;points=[[0,0.5],[1,0.5]];portConstraint=eastwest;fontColor=#5C5C5C;rounded=1;" vertex="1" parent="Rhfo9n1dwfOJ7BGIrTa6-46">
          <mxGeometry y="104" width="160" height="26" as="geometry" />
        </mxCell>
        <mxCell id="Rhfo9n1dwfOJ7BGIrTa6-11" value="наименование.номенклат" style="text;html=1;strokeColor=none;fillColor=none;spacingLeft=4;spacingRight=4;whiteSpace=wrap;overflow=hidden;rotatable=0;points=[[0,0.5],[1,0.5]];portConstraint=eastwest;fontColor=#5C5C5C;rounded=1;" vertex="1" parent="Rhfo9n1dwfOJ7BGIrTa6-46">
          <mxGeometry y="130" width="160" height="26" as="geometry" />
        </mxCell>
        <mxCell id="Rhfo9n1dwfOJ7BGIrTa6-54" style="edgeStyle=orthogonalEdgeStyle;rounded=1;orthogonalLoop=1;jettySize=auto;html=1;exitX=1;exitY=0.5;exitDx=0;exitDy=0;entryX=0;entryY=0.5;entryDx=0;entryDy=0;fontColor=#5C5C5C;startArrow=oval;startFill=1;endArrow=oval;endFill=1;strokeColor=#006658;fillColor=#21C0A5;" edge="1" parent="1" source="Rhfo9n1dwfOJ7BGIrTa6-10" target="Rhfo9n1dwfOJ7BGIrTa6-47">
          <mxGeometry relative="1" as="geometry">
            <Array as="points">
              <mxPoint x="200" y="610" />
              <mxPoint x="260" y="610" />
              <mxPoint x="260" y="480" />
            </Array>
          </mxGeometry>
        </mxCell>
        <mxCell id="Rhfo9n1dwfOJ7BGIrTa6-55" value="Заявка на закупку" style="swimlane;html=1;fontStyle=0;childLayout=stackLayout;horizontal=1;startSize=26;fillColor=#21C0A5;horizontalStack=0;resizeParent=1;resizeLast=0;collapsible=1;marginBottom=0;swimlaneFillColor=#ffffff;align=center;rounded=1;shadow=0;comic=0;labelBackgroundColor=none;strokeWidth=1;fontFamily=Verdana;fontSize=12;strokeColor=#006658;fontColor=#5C5C5C;" vertex="1" parent="1">
          <mxGeometry x="530" y="440" width="160" height="210" as="geometry" />
        </mxCell>
        <mxCell id="Rhfo9n1dwfOJ7BGIrTa6-56" value="Поставшик" style="text;html=1;strokeColor=default;fillColor=none;spacingLeft=4;spacingRight=4;whiteSpace=wrap;overflow=hidden;rotatable=0;points=[[0,0.5],[1,0.5]];portConstraint=eastwest;fontColor=#5C5C5C;rounded=0;" vertex="1" parent="Rhfo9n1dwfOJ7BGIrTa6-55">
          <mxGeometry y="26" width="160" height="26" as="geometry" />
        </mxCell>
        <mxCell id="Rhfo9n1dwfOJ7BGIrTa6-61" value="ИГК" style="text;html=1;strokeColor=default;fillColor=none;spacingLeft=4;spacingRight=4;whiteSpace=wrap;overflow=hidden;rotatable=0;points=[[0,0.5],[1,0.5]];portConstraint=eastwest;fontColor=#5C5C5C;rounded=0;" vertex="1" parent="Rhfo9n1dwfOJ7BGIrTa6-55">
          <mxGeometry y="52" width="160" height="26" as="geometry" />
        </mxCell>
        <mxCell id="Rhfo9n1dwfOJ7BGIrTa6-60" value="Заказ" style="text;html=1;strokeColor=default;fillColor=none;spacingLeft=4;spacingRight=4;whiteSpace=wrap;overflow=hidden;rotatable=0;points=[[0,0.5],[1,0.5]];portConstraint=eastwest;fontColor=#5C5C5C;rounded=0;" vertex="1" parent="Rhfo9n1dwfOJ7BGIrTa6-55">
          <mxGeometry y="78" width="160" height="26" as="geometry" />
        </mxCell>
        <mxCell id="Rhfo9n1dwfOJ7BGIrTa6-57" value="Номенклатура" style="text;html=1;strokeColor=default;fillColor=none;spacingLeft=4;spacingRight=4;whiteSpace=wrap;overflow=hidden;rotatable=0;points=[[0,0.5],[1,0.5]];portConstraint=eastwest;fontColor=#5C5C5C;rounded=0;" vertex="1" parent="Rhfo9n1dwfOJ7BGIrTa6-55">
          <mxGeometry y="104" width="160" height="26" as="geometry" />
        </mxCell>
        <mxCell id="Rhfo9n1dwfOJ7BGIrTa6-58" value="Количество&lt;br&gt;&lt;br&gt;" style="text;html=1;strokeColor=default;fillColor=none;spacingLeft=4;spacingRight=4;whiteSpace=wrap;overflow=hidden;rotatable=0;points=[[0,0.5],[1,0.5]];portConstraint=eastwest;fontColor=#5C5C5C;rounded=0;" vertex="1" parent="Rhfo9n1dwfOJ7BGIrTa6-55">
          <mxGeometry y="130" width="160" height="26" as="geometry" />
        </mxCell>
        <mxCell id="Rhfo9n1dwfOJ7BGIrTa6-59" value="Статус.закупка" style="text;html=1;strokeColor=default;fillColor=none;spacingLeft=4;spacingRight=4;whiteSpace=wrap;overflow=hidden;rotatable=0;points=[[0,0.5],[1,0.5]];portConstraint=eastwest;fontColor=#5C5C5C;rounded=0;" vertex="1" parent="Rhfo9n1dwfOJ7BGIrTa6-55">
          <mxGeometry y="156" width="160" height="26" as="geometry" />
        </mxCell>
        <mxCell id="Rhfo9n1dwfOJ7BGIrTa6-62" value="Число" style="text;html=1;strokeColor=none;fillColor=none;spacingLeft=4;spacingRight=4;whiteSpace=wrap;overflow=hidden;rotatable=0;points=[[0,0.5],[1,0.5]];portConstraint=eastwest;fontColor=#5C5C5C;rounded=1;" vertex="1" parent="Rhfo9n1dwfOJ7BGIrTa6-55">
          <mxGeometry y="182" width="160" height="26" as="geometry" />
        </mxCell>
        <mxCell id="Rhfo9n1dwfOJ7BGIrTa6-63" style="edgeStyle=orthogonalEdgeStyle;rounded=1;orthogonalLoop=1;jettySize=auto;html=1;exitX=1;exitY=0.5;exitDx=0;exitDy=0;entryX=1;entryY=0.5;entryDx=0;entryDy=0;fontColor=#5C5C5C;startArrow=oval;startFill=1;endArrow=oval;endFill=1;strokeColor=#006658;fillColor=#21C0A5;" edge="1" parent="1" source="Rhfo9n1dwfOJ7BGIrTa6-38" target="Rhfo9n1dwfOJ7BGIrTa6-61">
          <mxGeometry relative="1" as="geometry">
            <Array as="points">
              <mxPoint x="710" y="199" />
              <mxPoint x="710" y="495" />
            </Array>
          </mxGeometry>
        </mxCell>
        <mxCell id="Rhfo9n1dwfOJ7BGIrTa6-64" style="edgeStyle=orthogonalEdgeStyle;rounded=1;orthogonalLoop=1;jettySize=auto;html=1;entryX=0;entryY=0.5;entryDx=0;entryDy=0;fontColor=#5C5C5C;startArrow=oval;startFill=1;endArrow=oval;endFill=1;strokeColor=#006658;fillColor=#21C0A5;" edge="1" parent="1" target="Rhfo9n1dwfOJ7BGIrTa6-56">
          <mxGeometry relative="1" as="geometry">
            <mxPoint x="450" y="581" as="sourcePoint" />
            <Array as="points">
              <mxPoint x="480" y="581" />
              <mxPoint x="480" y="480" />
            </Array>
          </mxGeometry>
        </mxCell>
        <mxCell id="Rhfo9n1dwfOJ7BGIrTa6-65" style="edgeStyle=orthogonalEdgeStyle;rounded=1;orthogonalLoop=1;jettySize=auto;html=1;exitX=1;exitY=0.5;exitDx=0;exitDy=0;fontColor=#5C5C5C;startArrow=oval;startFill=1;endArrow=oval;endFill=1;strokeColor=#006658;fillColor=#21C0A5;entryX=0;entryY=0.5;entryDx=0;entryDy=0;" edge="1" parent="1" source="21ea969265ad0168-7" target="Rhfo9n1dwfOJ7BGIrTa6-60">
          <mxGeometry relative="1" as="geometry">
            <mxPoint x="510" y="570" as="targetPoint" />
            <Array as="points">
              <mxPoint x="220" y="479" />
              <mxPoint x="220" y="430" />
              <mxPoint x="510" y="430" />
              <mxPoint x="510" y="521" />
              <mxPoint x="530" y="521" />
            </Array>
          </mxGeometry>
        </mxCell>
        <mxCell id="Rhfo9n1dwfOJ7BGIrTa6-66" value="Контрагент" style="swimlane;html=1;fontStyle=0;childLayout=stackLayout;horizontal=1;startSize=26;fillColor=#21C0A5;horizontalStack=0;resizeParent=1;resizeLast=0;collapsible=1;marginBottom=0;swimlaneFillColor=#ffffff;align=center;rounded=1;shadow=0;comic=0;labelBackgroundColor=none;strokeWidth=1;fontFamily=Verdana;fontSize=12;strokeColor=#006658;fontColor=#5C5C5C;" vertex="1" parent="1">
          <mxGeometry x="780" y="160" width="160" height="210" as="geometry" />
        </mxCell>
        <mxCell id="Rhfo9n1dwfOJ7BGIrTa6-67" value="Id" style="text;html=1;strokeColor=none;fillColor=none;spacingLeft=4;spacingRight=4;whiteSpace=wrap;overflow=hidden;rotatable=0;points=[[0,0.5],[1,0.5]];portConstraint=eastwest;fontColor=#5C5C5C;" vertex="1" parent="Rhfo9n1dwfOJ7BGIrTa6-66">
          <mxGeometry y="26" width="160" height="26" as="geometry" />
        </mxCell>
        <mxCell id="Rhfo9n1dwfOJ7BGIrTa6-74" style="edgeStyle=orthogonalEdgeStyle;rounded=1;orthogonalLoop=1;jettySize=auto;html=1;exitX=1;exitY=0.5;exitDx=0;exitDy=0;entryX=0;entryY=0.5;entryDx=0;entryDy=0;fontColor=#5C5C5C;startArrow=oval;startFill=1;endArrow=oval;endFill=1;strokeColor=#006658;fillColor=#21C0A5;" edge="1" parent="1" source="Rhfo9n1dwfOJ7BGIrTa6-56" target="Rhfo9n1dwfOJ7BGIrTa6-67">
          <mxGeometry relative="1" as="geometry" />
        </mxCell>
        <mxCell id="Rhfo9n1dwfOJ7BGIrTa6-75" style="edgeStyle=orthogonalEdgeStyle;rounded=1;orthogonalLoop=1;jettySize=auto;html=1;exitX=0;exitY=0.5;exitDx=0;exitDy=0;fontColor=#5C5C5C;startArrow=oval;startFill=1;endArrow=oval;endFill=1;strokeColor=#006658;fillColor=#21C0A5;entryX=0;entryY=0.5;entryDx=0;entryDy=0;" edge="1" parent="1" source="Rhfo9n1dwfOJ7BGIrTa6-27" target="Rhfo9n1dwfOJ7BGIrTa6-67">
          <mxGeometry relative="1" as="geometry">
            <mxPoint x="800" y="200" as="targetPoint" />
            <Array as="points">
              <mxPoint x="260" y="255" />
              <mxPoint x="260" y="140" />
              <mxPoint x="760" y="140" />
              <mxPoint x="760" y="199" />
            </Array>
          </mxGeometry>
        </mxCell>
        <mxCell id="Rhfo9n1dwfOJ7BGIrTa6-76" value="Договор поставщика" style="swimlane;html=1;fontStyle=0;childLayout=stackLayout;horizontal=1;startSize=26;fillColor=#21C0A5;horizontalStack=0;resizeParent=1;resizeLast=0;collapsible=1;marginBottom=0;swimlaneFillColor=#ffffff;align=center;rounded=1;shadow=0;comic=0;labelBackgroundColor=none;strokeWidth=1;fontFamily=Verdana;fontSize=12;strokeColor=#006658;fontColor=#5C5C5C;" vertex="1" parent="1">
          <mxGeometry x="780" y="440" width="160" height="210" as="geometry" />
        </mxCell>
        <mxCell id="Rhfo9n1dwfOJ7BGIrTa6-77" value="контрагент" style="text;html=1;strokeColor=none;fillColor=none;spacingLeft=4;spacingRight=4;whiteSpace=wrap;overflow=hidden;rotatable=0;points=[[0,0.5],[1,0.5]];portConstraint=eastwest;fontColor=#5C5C5C;" vertex="1" parent="Rhfo9n1dwfOJ7BGIrTa6-76">
          <mxGeometry y="26" width="160" height="26" as="geometry" />
        </mxCell>
        <mxCell id="Rhfo9n1dwfOJ7BGIrTa6-78" value="факт оплаты (статус)" style="text;html=1;strokeColor=none;fillColor=none;spacingLeft=4;spacingRight=4;whiteSpace=wrap;overflow=hidden;rotatable=0;points=[[0,0.5],[1,0.5]];portConstraint=eastwest;fontColor=#5C5C5C;" vertex="1" parent="Rhfo9n1dwfOJ7BGIrTa6-76">
          <mxGeometry y="52" width="160" height="26" as="geometry" />
        </mxCell>
        <mxCell id="Rhfo9n1dwfOJ7BGIrTa6-79" value="дата оплаты" style="text;html=1;strokeColor=none;fillColor=none;spacingLeft=4;spacingRight=4;whiteSpace=wrap;overflow=hidden;rotatable=0;points=[[0,0.5],[1,0.5]];portConstraint=eastwest;fontColor=#5C5C5C;" vertex="1" parent="Rhfo9n1dwfOJ7BGIrTa6-76">
          <mxGeometry y="78" width="160" height="26" as="geometry" />
        </mxCell>
        <mxCell id="Rhfo9n1dwfOJ7BGIrTa6-80" value="срок производства" style="text;html=1;strokeColor=none;fillColor=none;spacingLeft=4;spacingRight=4;whiteSpace=wrap;overflow=hidden;rotatable=0;points=[[0,0.5],[1,0.5]];portConstraint=eastwest;fontColor=#5C5C5C;" vertex="1" parent="Rhfo9n1dwfOJ7BGIrTa6-76">
          <mxGeometry y="104" width="160" height="26" as="geometry" />
        </mxCell>
        <mxCell id="Rhfo9n1dwfOJ7BGIrTa6-81" value="дата поставки" style="text;html=1;strokeColor=none;fillColor=none;spacingLeft=4;spacingRight=4;whiteSpace=wrap;overflow=hidden;rotatable=0;points=[[0,0.5],[1,0.5]];portConstraint=eastwest;fontColor=#5C5C5C;" vertex="1" parent="Rhfo9n1dwfOJ7BGIrTa6-76">
          <mxGeometry y="130" width="160" height="26" as="geometry" />
        </mxCell>
        <mxCell id="Rhfo9n1dwfOJ7BGIrTa6-82" value="статус договора" style="text;html=1;strokeColor=none;fillColor=none;spacingLeft=4;spacingRight=4;whiteSpace=wrap;overflow=hidden;rotatable=0;points=[[0,0.5],[1,0.5]];portConstraint=eastwest;fontColor=#5C5C5C;" vertex="1" parent="Rhfo9n1dwfOJ7BGIrTa6-76">
          <mxGeometry y="156" width="160" height="26" as="geometry" />
        </mxCell>
        <mxCell id="Rhfo9n1dwfOJ7BGIrTa6-84" style="edgeStyle=orthogonalEdgeStyle;rounded=1;orthogonalLoop=1;jettySize=auto;html=1;exitX=0;exitY=0.5;exitDx=0;exitDy=0;entryX=0;entryY=0.5;entryDx=0;entryDy=0;fontColor=#5C5C5C;startArrow=oval;startFill=1;endArrow=oval;endFill=1;strokeColor=#006658;fillColor=#21C0A5;" edge="1" parent="1" source="Rhfo9n1dwfOJ7BGIrTa6-77" target="Rhfo9n1dwfOJ7BGIrTa6-67">
          <mxGeometry relative="1" as="geometry" />
        </mxCell>
        <mxCell id="Rhfo9n1dwfOJ7BGIrTa6-85" style="edgeStyle=orthogonalEdgeStyle;rounded=1;orthogonalLoop=1;jettySize=auto;html=1;exitX=0;exitY=0.5;exitDx=0;exitDy=0;entryX=1;entryY=0.5;entryDx=0;entryDy=0;fontColor=#5C5C5C;startArrow=oval;startFill=1;endArrow=oval;endFill=1;strokeColor=#006658;fillColor=#21C0A5;" edge="1" parent="1" source="Rhfo9n1dwfOJ7BGIrTa6-78" target="Rhfo9n1dwfOJ7BGIrTa6-60">
          <mxGeometry relative="1" as="geometry" />
        </mxCell>
      </root>
    </mxGraphModel>
  </diagram>
</mxfile>
